<svg width="31" height="31" viewBox="0 0 31 31" fill="none" xmlns="http://www.w3.org/2000/svg">
<path d="M25.8333 10.3333L18.0833 3.53917C17.3729 2.90373 16.4531 2.55243 15.5 2.55243C14.5468 2.55243 13.6271 2.90373 12.9166 3.53917L5.16664 10.3333C4.75636 10.7003 4.42897 11.1504 4.20625 11.6537C3.98353 12.1571 3.87059 12.7021 3.87497 13.2525V24.5417C3.87497 25.5694 4.28323 26.555 5.00993 27.2817C5.73663 28.0084 6.72226 28.4167 7.74997 28.4167H23.25C24.2777 28.4167 25.2633 28.0084 25.99 27.2817C26.7167 26.555 27.125 25.5694 27.125 24.5417V13.2396C27.1275 12.6914 27.0137 12.1488 26.791 11.6478C26.5684 11.1469 26.2419 10.6988 25.8333 10.3333ZM18.0833 25.8333H12.9166V19.375C12.9166 19.0324 13.0527 18.7039 13.295 18.4617C13.5372 18.2194 13.8657 18.0833 14.2083 18.0833H16.7916C17.1342 18.0833 17.4627 18.2194 17.705 18.4617C17.9472 18.7039 18.0833 19.0324 18.0833 19.375V25.8333ZM24.5416 24.5417C24.5416 24.8842 24.4056 25.2128 24.1633 25.455C23.9211 25.6973 23.5925 25.8333 23.25 25.8333H20.6666V19.375C20.6666 18.3473 20.2584 17.3617 19.5317 16.635C18.805 15.9083 17.8193 15.5 16.7916 15.5H14.2083C13.1806 15.5 12.195 15.9083 11.4683 16.635C10.7416 17.3617 10.3333 18.3473 10.3333 19.375V25.8333H7.74997C7.4074 25.8333 7.07886 25.6973 6.83662 25.455C6.59439 25.2128 6.4583 24.8842 6.4583 24.5417V13.2396C6.45854 13.0562 6.49782 12.8749 6.57354 12.7079C6.64926 12.5409 6.75969 12.3919 6.89747 12.2708L14.6475 5.48959C14.8832 5.28251 15.1862 5.16831 15.5 5.16831C15.8137 5.16831 16.1168 5.28251 16.3525 5.48959L24.1025 12.2708C24.2402 12.3919 24.3507 12.5409 24.4264 12.7079C24.5021 12.8749 24.5414 13.0562 24.5416 13.2396V24.5417Z" fill="#14171a"/>
</svg>
