<svg width="31" height="31" viewBox="0 0 31 31" fill="none" xmlns="http://www.w3.org/2000/svg">
<path d="M23.25 17.0242V12.9167C23.2481 11.0865 22.5987 9.31612 21.4166 7.91893C20.2346 6.52174 18.5962 5.58795 16.7917 5.28293V3.87501C16.7917 3.53244 16.6556 3.2039 16.4133 2.96166C16.1711 2.71943 15.8426 2.58334 15.5 2.58334C15.1574 2.58334 14.8289 2.71943 14.5866 2.96166C14.3444 3.2039 14.2083 3.53244 14.2083 3.87501V5.28293C12.4038 5.58795 10.7654 6.52174 9.58336 7.91893C8.40131 9.31612 7.75184 11.0865 7.74999 12.9167V17.0242C6.99624 17.2907 6.34336 17.7838 5.88087 18.4359C5.41837 19.088 5.1689 19.8672 5.16666 20.6667V23.25C5.16666 23.5926 5.30274 23.9211 5.54498 24.1634C5.78721 24.4056 6.11575 24.5417 6.45832 24.5417H10.5142C10.8116 25.6362 11.461 26.6024 12.362 27.2913C13.2631 27.9802 14.3658 28.3534 15.5 28.3534C16.6342 28.3534 17.7369 27.9802 18.638 27.2913C19.539 26.6024 20.1884 25.6362 20.4858 24.5417H24.5417C24.8842 24.5417 25.2128 24.4056 25.455 24.1634C25.6972 23.9211 25.8333 23.5926 25.8333 23.25V20.6667C25.8311 19.8672 25.5816 19.088 25.1191 18.4359C24.6566 17.7838 24.0037 17.2907 23.25 17.0242ZM10.3333 12.9167C10.3333 11.5464 10.8777 10.2322 11.8466 9.26329C12.8155 8.29435 14.1297 7.75001 15.5 7.75001C16.8703 7.75001 18.1844 8.29435 19.1534 9.26329C20.1223 10.2322 20.6667 11.5464 20.6667 12.9167V16.7917H10.3333V12.9167ZM15.5 25.8333C15.0492 25.8306 14.6069 25.71 14.2171 25.4834C13.8274 25.2568 13.5037 24.9321 13.2783 24.5417H17.7217C17.4962 24.9321 17.1726 25.2568 16.7828 25.4834C16.3931 25.71 15.9508 25.8306 15.5 25.8333ZM23.25 21.9583H7.74999V20.6667C7.74999 20.3241 7.88608 19.9956 8.12831 19.7533C8.37054 19.5111 8.69908 19.375 9.04166 19.375H21.9583C22.3009 19.375 22.6294 19.5111 22.8717 19.7533C23.1139 19.9956 23.25 20.3241 23.25 20.6667V21.9583Z" fill="#14171a"/>
</svg>
